<?xml version="1.0" encoding="UTF-8" standalone="no"?>
<!-- Created with Inkscape (http://www.inkscape.org/) -->

<svg
   width="128.93536mm"
   height="128.93536mm"
   viewBox="0 0 128.93536 128.93536"
   version="1.1"
   id="svg1"
   xml:space="preserve"
   sodipodi:docname="Cool Question Mark.svg"
   inkscape:version="1.3.2 (091e20e, 2023-11-25)"
   xmlns:inkscape="http://www.inkscape.org/namespaces/inkscape"
   xmlns:sodipodi="http://sodipodi.sourceforge.net/DTD/sodipodi-0.dtd"
   xmlns="http://www.w3.org/2000/svg"
   xmlns:svg="http://www.w3.org/2000/svg"><sodipodi:namedview
     id="namedview1"
     pagecolor="#505050"
     bordercolor="#ffffff"
     borderopacity="1"
     inkscape:showpageshadow="0"
     inkscape:pageopacity="0"
     inkscape:pagecheckerboard="1"
     inkscape:deskcolor="#505050"
     inkscape:document-units="mm"
     inkscape:zoom="0.59705896"
     inkscape:cx="173.34971"
     inkscape:cy="219.40882"
     inkscape:window-width="1472"
     inkscape:window-height="891"
     inkscape:window-x="0"
     inkscape:window-y="37"
     inkscape:window-maximized="1"
     inkscape:current-layer="layer1-8" /><defs
     id="defs1" /><g
     inkscape:label="Layer 1"
     inkscape:groupmode="layer"
     id="layer1"
     transform="translate(-40.532319,-84.032319)"><g
       inkscape:label="Layer 1"
       id="layer1-8"
       transform="matrix(0.26458333,0,0,0.26458333,29.169987,75.267391)"><g
         id="g4"
         transform="translate(4.0125807e-6,-72.643738)"><circle
           style="fill:#303446;fill-opacity:1;stroke:none;stroke-width:45.8445;stroke-dasharray:none;stroke-opacity:1"
           id="path1"
           cx="286.60162"
           cy="349.42841"
           r="243.65738" /><g
           id="g50"
           transform="translate(30.678313,93.92437)"
           style="stroke-width:1.00157;stroke-dasharray:none"><g
             id="g49"
             transform="translate(-2.17539,-28.924973)"
             style="stroke-width:1.00157;stroke-dasharray:none"><g
               id="g43"
               transform="matrix(0.29042717,0.89384296,-0.89384296,0.29042717,396.67614,-234.86537)"
               style="fill:#dce0e8;fill-opacity:1;stroke-width:1.06568;stroke-dasharray:none"><path
                 d="m 492.93602,125.19583 a 27.917245,27.917245 0 0 0 -14.90158,41.79189 45.171052,45.171052 0 0 1 -20.28993,66.20424 38.650583,38.650583 0 0 0 -10.81647,64.31302 68.374981,68.374981 0 0 1 -17.06784,-93.91359 15.809868,15.809868 0 0 1 -1.10911,-1.04777 69.880683,69.880683 0 0 0 16.75444,95.79314 90.342104,90.342104 0 0 1 47.43049,-173.14093"
                 fill="#ffffff"
                 id="path43"
                 style="fill:#c6d0f5;fill-opacity:1;stroke-width:1.06568;stroke-dasharray:none" /></g><g
               id="g45"
               transform="matrix(-0.62887714,0.6984388,-0.6984388,-0.62887714,749.83326,132.78677)"
               style="fill:#dce0e8;fill-opacity:1;stroke-width:1.06568;stroke-dasharray:none"><path
                 d="m 492.93602,125.19583 a 27.917245,27.917245 0 0 0 -14.90158,41.79189 45.171052,45.171052 0 0 1 -20.28993,66.20424 38.650583,38.650583 0 0 0 -10.81647,64.31302 68.374981,68.374981 0 0 1 -17.06784,-93.91359 15.809868,15.809868 0 0 1 -1.10911,-1.04777 69.880683,69.880683 0 0 0 16.75444,95.79314 90.342104,90.342104 0 0 1 47.43049,-173.14093"
                 fill="#ffffff"
                 id="path45"
                 style="fill:#c6d0f5;fill-opacity:1;stroke-width:1.06568;stroke-dasharray:none" /></g></g><g
             id="g48"
             transform="matrix(-1,0,0,1,514.02202,-29.158772)"
             style="stroke-width:1.00157;stroke-dasharray:none"><g
               id="g46"
               transform="matrix(0.29042717,0.89384296,-0.89384296,0.29042717,396.67614,-234.86537)"
               style="fill:#dce0e8;fill-opacity:1;stroke-width:1.06568;stroke-dasharray:none"><path
                 d="m 492.93602,125.19583 a 27.917245,27.917245 0 0 0 -14.90158,41.79189 45.171052,45.171052 0 0 1 -20.28993,66.20424 38.650583,38.650583 0 0 0 -10.81647,64.31302 68.374981,68.374981 0 0 1 -17.06784,-93.91359 15.809868,15.809868 0 0 1 -1.10911,-1.04777 69.880683,69.880683 0 0 0 16.75444,95.79314 90.342104,90.342104 0 0 1 47.43049,-173.14093"
                 fill="#ffffff"
                 id="path46"
                 style="fill:#c6d0f5;fill-opacity:1;stroke-width:1.06568;stroke-dasharray:none" /></g><g
               id="g47"
               transform="matrix(-0.62887714,0.6984388,-0.6984388,-0.62887714,749.83326,132.78677)"
               style="fill:#dce0e8;fill-opacity:1;stroke-width:1.06568;stroke-dasharray:none"><path
                 d="m 492.93602,125.19583 a 27.917245,27.917245 0 0 0 -14.90158,41.79189 45.171052,45.171052 0 0 1 -20.28993,66.20424 38.650583,38.650583 0 0 0 -10.81647,64.31302 68.374981,68.374981 0 0 1 -17.06784,-93.91359 15.809868,15.809868 0 0 1 -1.10911,-1.04777 69.880683,69.880683 0 0 0 16.75444,95.79314 90.342104,90.342104 0 0 1 47.43049,-173.14093"
                 fill="#ffffff"
                 id="path47"
                 style="fill:#c6d0f5;fill-opacity:1;stroke-width:1.06568;stroke-dasharray:none" /></g></g></g><text
           xml:space="preserve"
           style="font-size:46.6667px;fill:#303446;fill-opacity:1;stroke-width:1.00157;stroke-dasharray:none"
           x="286.48499"
           y="552.92181"
           id="text1"><tspan
             sodipodi:role="line"
             x="286.48499"
             y="552.92181"
             style="font-style:normal;font-variant:normal;font-weight:normal;font-stretch:normal;font-size:46.6667px;font-family:Urbanist;-inkscape-font-specification:Urbanist;text-align:center;text-anchor:middle;fill:#b5bfe2;fill-opacity:1"
             id="tspan3">dotfiles</tspan></text></g></g></g></svg>
